<svg xmlns="http://www.w3.org/2000/svg" viewBox="0 0 900 1100" role="img" aria-label="Terracotta pour over set">
  <defs>
    <linearGradient id="bg" x1="0" x2="1" y1="0" y2="1"><stop offset="0" stop-color="#ffd2a2"/><stop offset=".55" stop-color="#fac584"/><stop offset="1" stop-color="#eda45b"/></linearGradient>
    <filter id="shadow" x="-20%" y="-20%" width="140%" height="140%"><feDropShadow dx="0" dy="22" stdDeviation="18" flood-color="#000" flood-opacity=".28"/></filter>
  </defs>
  <rect width="900" height="1100" fill="url(#bg)"/>
  <ellipse cx="472" cy="770" rx="310" ry="66" fill="#99542f" opacity=".2"/>
  <path d="M404 426h210l-38 148H442Z" fill="#b75b32" filter="url(#shadow)"/>
  <path d="M382 396h254c-9 45-62 78-127 78s-118-33-127-78Z" fill="#cc7042"/>
  <path d="M424 582h170l58 260H366Z" fill="#d17a49" filter="url(#shadow)"/>
  <path d="M399 626h220" stroke="#fff" stroke-width="18" opacity=".55"/>
  <path d="M638 660c82 0 82 112 2 112" fill="none" stroke="#a84f2b" stroke-width="26" stroke-linecap="round"/>
  <rect x="234" y="638" width="128" height="118" rx="46" fill="#c76739" filter="url(#shadow)"/>
  <path d="M222 630h152c-5 28-36 50-76 50s-71-22-76-50Z" fill="#de8654"/>
</svg>
